<svg width="24" height="24" viewBox="0 0 24 24" fill="none" xmlns="http://www.w3.org/2000/svg">
<path d="M11.8809 7.90898L11.299 7.98172C10.9334 8.05047 10.5787 8.1682 10.2445 8.33172C9.48182 8.73297 8.88245 9.38699 8.54905 10.1817C8.50413 10.3307 8.46921 10.4826 8.44452 10.6362C8.18975 11.5413 8.51862 12.5098 9.27178 13.0726C9.38542 13.1408 9.64905 13.2681 9.72631 13.0999C9.7619 12.9968 9.78631 12.8901 9.79905 12.7817C9.84288 12.6907 9.8676 12.5917 9.87178 12.4908C9.84452 12.3408 9.68542 12.2499 9.61725 12.1271C9.50518 11.8798 9.43452 11.6156 9.40815 11.3453V11.2135C9.4419 10.0975 10.2245 9.14496 11.3127 8.89531C11.6531 8.80332 12.0079 8.77707 12.3582 8.81804L12.8627 8.90441C13.4393 9.05496 13.9161 9.4598 14.1582 10.0044C14.3168 10.4711 14.3482 10.9716 14.249 11.4544C14.199 11.6635 14.2082 11.8453 14.1445 12.0362C13.9127 12.7408 13.5718 13.3999 12.8036 13.5726C12.3858 13.6818 11.9519 13.4639 11.79 13.0635C11.7324 12.9418 11.7118 12.8059 11.7309 12.6726C11.8627 12.0999 12.0582 11.5908 12.1854 11.0181C12.3422 10.5943 12.1258 10.1236 11.702 9.96679C11.6801 9.95871 11.6579 9.95152 11.6354 9.94535C11.1082 9.81808 10.7036 10.309 10.5627 10.6272C10.431 10.9641 10.3994 11.3319 10.4718 11.6863C10.5485 11.8401 10.6036 12.0037 10.6354 12.1727C10.5354 12.6272 10.4173 13.0818 10.2945 13.5363C10.1718 13.9908 10.0945 14.4454 9.96725 14.8999C9.90815 15.0999 9.91272 15.3136 9.86272 15.5227V15.8272C9.83124 16.0681 9.84202 16.3127 9.89456 16.5499C9.92182 16.6727 9.89456 16.8227 9.94003 16.9136C9.93803 16.9539 9.94921 16.9937 9.97186 17.0272C10.1582 17.0272 10.4264 16.5317 10.5082 16.3908C10.6853 16.1092 10.8374 15.8126 10.9628 15.5045C11.0855 15.2181 11.1037 14.8999 11.1991 14.5953C11.2953 14.3444 11.3639 14.0838 11.4037 13.8181C11.4626 13.9471 11.5614 14.0539 11.6855 14.1226C12.1219 14.4312 12.668 14.5418 13.19 14.4271C13.8248 14.3039 14.395 13.9591 14.7991 13.4544C15.0738 13.0807 15.2857 12.6646 15.4264 12.2226C15.5037 11.9953 15.5173 11.7407 15.5764 11.4998C15.6743 10.9102 15.5969 10.3049 15.3537 9.75894C14.8309 8.57261 13.6945 7.88172 11.8809 7.90898Z" fill="black"/>
<path d="M12 2C6.47715 2 2 6.47715 2 12C2 17.5229 6.47715 22 12 22C17.5229 22 22 17.5229 22 12C22 6.47715 17.5229 2 12 2ZM12 21.0909C6.97922 21.0909 2.9091 17.0208 2.9091 12C2.9091 6.97922 6.97922 2.9091 12 2.9091C17.0208 2.9091 21.0909 6.97922 21.0909 12C21.0909 17.0208 17.0208 21.0909 12 21.0909Z" fill="black"/>
</svg>
