<svg width="24" height="24" viewBox="0 0 24 24" fill="none" xmlns="http://www.w3.org/2000/svg">
<path d="M12.0026 7.021C9.25711 7.021 7.02344 9.25459 7.02344 12.0001C7.02344 14.7455 9.25711 16.9791 12.0026 16.9791C14.7482 16.9791 16.9818 14.7455 16.9818 12.0001C16.9818 9.25459 14.7482 7.021 12.0026 7.021ZM12.0026 15.8072C9.90328 15.8072 8.19531 14.0994 8.19531 12.0001C8.19531 9.90076 9.90328 8.19287 12.0026 8.19287C14.102 8.19287 15.8099 9.90076 15.8099 12.0001C15.8099 14.0994 14.102 15.8072 12.0026 15.8072Z" fill="black"/>
<path d="M16.707 2H7.29297C4.37441 2 2 4.37441 2 7.29297V16.707C2 19.6256 4.37441 22 7.29297 22H16.707C19.6256 22 22 19.6256 22 16.707V7.29297C22 4.37441 19.6256 2 16.707 2ZM20.8281 16.707C20.8281 18.9794 18.9794 20.8281 16.707 20.8281H7.29297C5.02059 20.8281 3.17188 18.9794 3.17188 16.707V7.29297C3.17188 5.02059 5.02059 3.17188 7.29297 3.17188H16.707C18.9794 3.17188 20.8281 5.02059 20.8281 7.29297V16.707Z" fill="black"/>
<path d="M17.5703 5.84375C17.416 5.84375 17.2652 5.90625 17.1562 6.01563C17.0469 6.12461 16.9844 6.27539 16.9844 6.42969C16.9844 6.58398 17.0469 6.73516 17.1562 6.84414C17.2652 6.95313 17.416 7.01562 17.5703 7.01562C17.7246 7.01562 17.8758 6.95313 17.9848 6.84414C18.0937 6.73516 18.1562 6.58398 18.1562 6.42969C18.1562 6.27578 18.0937 6.12461 17.9848 6.01563C17.8758 5.90625 17.7246 5.84375 17.5703 5.84375Z" fill="black"/>
</svg>
