<svg width="24" height="24" viewBox="0 0 24 24" fill="none" xmlns="http://www.w3.org/2000/svg">
<path d="M11.9975 5.90625C9.64683 5.90625 7.73438 7.48336 7.73438 9.42188C7.73438 11.3604 9.64683 12.9375 11.9975 12.9375C14.3482 12.9375 16.2607 11.3604 16.2607 9.42188C16.2607 7.48336 14.3482 5.90625 11.9975 5.90625ZM11.9975 12.1562C10.1692 12.1562 8.68174 10.9296 8.68174 9.42188C8.68174 7.91414 10.1692 6.6875 11.9975 6.6875C13.8259 6.6875 15.3133 7.91414 15.3133 9.42188C15.3133 10.9296 13.8259 12.1562 11.9975 12.1562Z" fill="black"/>
<path d="M16.2627 17.0781C16.5244 17.0781 16.7364 16.9032 16.7364 16.6875C16.7364 16.4718 16.5244 16.2969 16.2627 16.2969C16.0011 16.2969 15.7891 16.4718 15.7891 16.6875C15.7891 16.9032 16.0011 17.0781 16.2627 17.0781Z" fill="black"/>
<path d="M18.4384 13.4114L17.0718 15.0076C16.9209 15.1839 16.9719 15.4276 17.1856 15.552C17.3993 15.6764 17.6949 15.6344 17.8457 15.4582L19.2084 13.8664C20.3806 12.5755 21 11.0388 21 9.42188C21 5.32941 16.9626 2 12 2C7.03735 2 3 5.32941 3 9.42188C3 11.0388 3.61944 12.5755 4.79157 13.8665L11.0857 21.2188H4.89474C4.63317 21.2188 4.42105 21.3936 4.42105 21.6094C4.42105 21.8251 4.63317 22 4.89474 22H19.1053C19.3668 22 19.5789 21.8251 19.5789 21.6094C19.5789 21.3936 19.3668 21.2188 19.1053 21.2188H12.9143L15.3884 18.3288C15.5393 18.1525 15.4883 17.9088 15.2746 17.7843C15.0608 17.6599 14.7653 17.7019 14.6145 17.8782L12 20.9321C12 20.9321 5.55638 13.4054 5.55363 13.4023C4.50286 12.2468 3.94737 10.8704 3.94737 9.42188C3.94737 5.76023 7.55978 2.78125 12 2.78125C16.4402 2.78125 20.0526 5.76023 20.0526 9.42188C20.0526 10.8704 19.4971 12.2468 18.4464 13.4023C18.4436 13.4054 18.441 13.4084 18.4384 13.4114Z" fill="black"/>
</svg>
