<svg width="24" height="24" viewBox="0 0 24 24" fill="none" xmlns="http://www.w3.org/2000/svg">
<path d="M19.6562 2H4.34375C3.05141 2 2 3.05141 2 4.34375V19.6562C2 20.9486 3.05141 22 4.34375 22H19.6562C20.9486 22 22 20.9486 22 19.6562V4.34375C22 3.05141 20.9486 2 19.6562 2ZM20.4375 19.6562C20.4375 20.087 20.087 20.4375 19.6562 20.4375H15.2031V14.0703H17.6168L18.0156 11.6484H15.2031V9.96875C15.2031 9.30566 15.7119 8.79688 16.375 8.79688H17.9766V6.375H16.375C14.3858 6.375 12.7821 7.98633 12.7821 9.97555V11.6484H10.4375V14.0703H12.7821V20.4375H4.34375C3.91297 20.4375 3.5625 20.087 3.5625 19.6562V4.34375C3.5625 3.91297 3.91297 3.5625 4.34375 3.5625H19.6562C20.087 3.5625 20.4375 3.91297 20.4375 4.34375V19.6562Z" fill="black"/>
</svg>
