<svg width="24" height="24" viewBox="0 0 24 24" fill="none" xmlns="http://www.w3.org/2000/svg">
<path d="M21.9117 6.08106C21.7934 5.88207 21.5771 5.76928 21.3518 5.78948L20.3545 5.87936L21.3078 3.8913C21.4213 3.65452 21.3765 3.36924 21.1963 3.18185C21.0161 2.99445 20.7406 2.94668 20.5112 3.06291L17.9883 4.34123C16.4295 3.48988 14.4821 3.74258 13.1421 5.00546C12.0238 6.05944 11.4359 7.6803 11.5455 9.29668C8.62252 8.99358 6.14829 7.26263 4.68524 4.46578C4.58817 4.28024 4.40617 4.15888 4.20277 4.14397C3.99898 4.1293 3.80266 4.22273 3.68133 4.39235C2.7739 5.6606 2.71023 7.39951 3.4216 8.83011C3.2255 8.77886 3.01683 8.70951 2.78542 8.62953C2.58718 8.56095 2.36863 8.60488 2.20952 8.7452C2.05042 8.88551 1.97394 9.10177 2.00796 9.31519C2.28945 11.0808 3.28461 12.4377 4.85664 13.2409C4.65195 13.3146 4.44309 13.3745 4.2307 13.4203C4.01969 13.4658 3.84883 13.6255 3.78379 13.8381C3.71875 14.0507 3.76961 14.2831 3.91687 14.4459C5.04895 15.6978 6.68427 16.314 7.84583 16.6096C6.52513 17.6796 5.09946 17.8587 3.02781 17.7851C2.788 17.7776 2.56706 17.9173 2.46624 18.1422C2.36546 18.3672 2.40456 18.6327 2.56562 18.8164C3.42922 19.8012 6.57556 20.9117 9.88307 20.9949C10.0139 20.9982 10.1473 21 10.2836 21C12.6059 21 15.6751 20.4849 17.8781 18.2057C19.5456 16.4806 20.5885 14.4947 20.9779 12.3032C21.2925 10.5332 21.0937 9.11587 20.9982 8.43466C20.9912 8.38459 20.9837 8.33145 20.9776 8.28497L21.9104 6.72946C22.0294 6.53103 22.0299 6.28006 21.9117 6.08106ZM19.8177 8.61183C19.9947 9.8737 20.5331 13.7136 17.0347 17.3331C15.0011 19.437 12.039 19.8148 9.91205 19.7613C8.09716 19.7156 6.4738 19.3565 5.29723 18.947C5.77493 18.8863 6.20063 18.7928 6.60247 18.6636C7.71025 18.3074 8.64611 17.6664 9.5476 16.6464C9.69787 16.4764 9.74404 16.234 9.66744 16.0177C9.59084 15.8014 9.40412 15.6472 9.18326 15.618C8.61455 15.5426 6.90571 15.245 5.56008 14.2847C5.94786 14.1206 6.32184 13.9152 6.67895 13.6702C6.87485 13.5357 6.97618 13.2947 6.93759 13.0548C6.89903 12.8149 6.7279 12.6207 6.50048 12.5591C5.39911 12.2603 4.06988 11.5919 3.45695 10.0997C3.84836 10.1707 4.27395 10.1878 4.72785 10.0826C4.93825 10.0338 5.10684 9.87136 5.16871 9.65765C5.23063 9.44395 5.17625 9.2123 5.02649 9.05186C4.26383 8.23461 3.97863 7.05689 4.22332 6.0491C5.02465 7.26073 6.03985 8.28044 7.20298 9.03436C8.69091 9.99882 10.4276 10.5318 12.2253 10.5756C12.4082 10.5796 12.5837 10.497 12.7001 10.3504C12.8166 10.2038 12.8613 10.0099 12.8215 9.82472C12.5122 8.38621 12.9534 6.85268 13.9454 5.91779C14.9743 4.94807 16.495 4.80097 17.6433 5.5603C17.8186 5.67624 18.0399 5.68922 18.2268 5.59449L19.4589 4.97018L18.814 6.31518C18.7182 6.51502 18.7341 6.75282 18.8556 6.93706C18.9771 7.12131 19.1849 7.22359 19.4001 7.20407L20.2689 7.12579L19.8687 7.79322C19.7343 8.01723 19.7622 8.21598 19.8177 8.61183Z" fill="black"/>
</svg>
